<svg xmlns="http://www.w3.org/2000/svg" width="275.171" height="228.521" viewBox="0 0 275.171 228.521"><path fill="#FFF" d="M21.258 228.521V209.92c29.818-16.829 49.38-32.108 58.68-45.837 9.301-13.729 13.951-29.604 13.951-47.609 0-8.269-1.481-14.469-4.429-18.601-3.252-4.138-6.795-6.2-10.629-6.2-2.955 0-7.681 1.176-14.172 3.543-6.498 2.36-12.996 3.543-19.486 3.543-12.4 0-23.029-4.429-31.887-13.286S0 65.842 0 53.145c0-14.172 5.681-26.572 17.05-37.201C28.413 5.314 42.218 0 58.459 0c19.486 0 37.125 8.415 52.923 25.244 15.791 16.829 23.693 38.087 23.693 63.773 0 31.001-9.965 59.345-29.894 85.031-19.929 25.687-47.905 43.845-83.923 54.473zm139.209 0V209.92c25.687-13.286 44.211-27.389 55.58-42.294 11.363-14.913 17.051-31.077 17.051-48.495 0-10.338-1.481-17.569-4.429-21.701-2.955-3.84-6.2-5.757-9.743-5.757-3.84 0-9.01 1.176-15.5 3.543-6.795 2.36-12.698 3.543-17.715 3.543-12.11 0-22.663-4.581-31.666-13.729-9.009-9.148-13.507-20.075-13.507-32.772 0-14.172 5.46-26.42 16.386-36.758C167.844 5.169 181.282 0 197.226 0c20.075 0 38.087 8.636 54.03 25.908 15.943 17.271 23.915 38.46 23.915 63.552 0 29.52-9.819 57.054-29.451 82.596-19.638 25.534-48.052 44.356-85.253 56.465z"/></svg>